<svg width="270" height="82" viewBox="0 0 270 82" fill="none" xmlns="http://www.w3.org/2000/svg">
<path d="M31.3337 21.8828C32.0303 20.2631 33.9358 19.4451 35.5898 20.0559V20.0559C37.2438 20.6666 38.02 22.4747 37.3234 24.0944L19.1125 66.4388C18.4159 68.0586 16.5104 68.8765 14.8564 68.2658V68.2658C13.2024 67.6551 12.4262 65.847 13.1228 64.2273L31.3337 21.8828Z" fill="url(#paint0_linear_2_42)"/>
<rect width="5.88051" height="47.4208" rx="2.94026" transform="matrix(0.301107 0.95359 -0.973015 0.23074 49.7376 33.1774)" fill="url(#paint1_linear_2_42)"/>
<rect width="5.63349" height="9.71315" rx="2.81675" transform="matrix(0.301107 0.95359 -0.973015 0.23074 61.9268 30.5566)" fill="url(#paint2_linear_2_42)"/>
<path d="M56.7401 74.9148C57.8788 76.2856 57.6004 78.1989 56.1183 79.1884V79.1884C54.6362 80.1778 52.5116 79.8687 51.3729 78.4979L32.1227 55.3238C30.984 53.953 31.2624 52.0397 32.7445 51.0502V51.0502C34.2266 50.0608 36.3511 50.3699 37.4898 51.7407L56.7401 74.9148Z" fill="url(#paint3_linear_2_42)"/>
<rect width="6.63742" height="75.7081" rx="3.31871" transform="matrix(0.995129 -0.0985777 0.146469 0.989215 40.1517 5.23823)" fill="url(#paint4_linear_2_42)"/>
<path fill-rule="evenodd" clip-rule="evenodd" d="M52.9165 79.5472C51.8683 79.0692 51.0683 78.0854 50.891 76.888L49.2446 65.7682L56.8767 74.956C57.1659 75.3042 57.3637 75.6874 57.4736 76.0816L57.4961 76.2337C57.6586 77.3307 57.2611 78.3557 56.5179 79.0342C56.4349 79.1027 56.3472 79.1679 56.2549 79.2296C55.2668 79.8892 53.9932 79.9717 52.9165 79.5472Z" fill="#0D187D"/>
<path d="M21.143 46.15L23.9024 39.1922L31.5456 37.4696L28.8199 44.1401L21.143 46.15Z" fill="#0D187D"/>
<path d="M83.3086 31.875L84.8672 29.8828L88.5352 25.8984H92.5664L87.3633 31.582L92.8828 39H88.7578L84.9844 33.6914L83.4492 34.9219V39H79.875V20.7656H83.4492V28.8984L83.2617 31.875H83.3086ZM106.852 39H103.277V31.3477C103.277 30.4023 103.109 29.6953 102.773 29.2266C102.438 28.75 101.902 28.5117 101.168 28.5117C100.168 28.5117 99.4453 28.8477 99 29.5195C98.5547 30.1836 98.3321 31.2891 98.3321 32.8359V39H94.7578V25.8984H97.4883L97.9688 27.5742H98.168C98.5664 26.9414 99.1133 26.4648 99.8086 26.1445C100.512 25.8164 101.309 25.6523 102.199 25.6523C103.723 25.6523 104.879 26.0664 105.668 26.8945C106.457 27.7148 106.852 28.9023 106.852 30.457V39ZM113.379 32.4258C113.379 33.7227 113.59 34.7031 114.012 35.3672C114.441 36.0312 115.137 36.3633 116.098 36.3633C117.051 36.3633 117.734 36.0352 118.148 35.3789C118.57 34.7148 118.781 33.7305 118.781 32.4258C118.781 31.1289 118.57 30.1562 118.148 29.5078C117.727 28.8594 117.035 28.5352 116.074 28.5352C115.121 28.5352 114.434 28.8594 114.012 29.5078C113.59 30.1484 113.379 31.1211 113.379 32.4258ZM122.438 32.4258C122.438 34.5586 121.875 36.2266 120.75 37.4297C119.625 38.6328 118.059 39.2344 116.051 39.2344C114.793 39.2344 113.684 38.9609 112.723 38.4141C111.762 37.8594 111.023 37.0664 110.508 36.0352C109.992 35.0039 109.734 33.8008 109.734 32.4258C109.734 30.2852 110.293 28.6211 111.41 27.4336C112.527 26.2461 114.098 25.6523 116.121 25.6523C117.379 25.6523 118.488 25.9258 119.449 26.4727C120.41 27.0195 121.148 27.8047 121.664 28.8281C122.18 29.8516 122.438 31.0508 122.438 32.4258ZM136.16 39L135.152 34.418L133.793 28.6289H133.711L131.32 39H127.477L123.75 25.8984H127.313L128.824 31.6992C129.066 32.7383 129.313 34.1719 129.563 36H129.633C129.664 35.4062 129.801 34.4648 130.043 33.1758L130.23 32.1797L131.848 25.8984H135.785L137.32 32.1797C137.352 32.3516 137.398 32.6055 137.461 32.9414C137.531 33.2773 137.598 33.6367 137.66 34.0195C137.723 34.3945 137.777 34.7656 137.824 35.1328C137.879 35.4922 137.91 35.7812 137.918 36H137.988C138.059 35.4375 138.184 34.668 138.363 33.6914C138.543 32.707 138.672 32.043 138.75 31.6992L140.32 25.8984H143.824L140.051 39H136.16ZM149.52 39H145.945V20.7656H149.52V39ZM158.707 28.1953C157.949 28.1953 157.355 28.4375 156.926 28.9219C156.496 29.3984 156.25 30.0781 156.188 30.9609H161.203C161.188 30.0781 160.957 29.3984 160.512 28.9219C160.066 28.4375 159.465 28.1953 158.707 28.1953ZM159.211 39.2344C157.102 39.2344 155.453 38.6523 154.266 37.4883C153.078 36.3242 152.484 34.6758 152.484 32.543C152.484 30.3477 153.031 28.6523 154.125 27.457C155.227 26.2539 156.746 25.6523 158.684 25.6523C160.535 25.6523 161.977 26.1797 163.008 27.2344C164.039 28.2891 164.555 29.7461 164.555 31.6055V33.3398H156.105C156.145 34.3555 156.445 35.1484 157.008 35.7188C157.57 36.2891 158.359 36.5742 159.375 36.5742C160.164 36.5742 160.91 36.4922 161.613 36.3281C162.316 36.1641 163.051 35.9023 163.816 35.543V38.3086C163.191 38.6211 162.523 38.8516 161.813 39C161.102 39.1562 160.234 39.2344 159.211 39.2344ZM171.609 39.2344C170.07 39.2344 168.859 38.6367 167.977 37.4414C167.102 36.2461 166.664 34.5898 166.664 32.4727C166.664 30.3242 167.109 28.6523 168 27.457C168.898 26.2539 170.133 25.6523 171.703 25.6523C173.352 25.6523 174.609 26.293 175.477 27.5742H175.594C175.414 26.5977 175.324 25.7266 175.324 24.9609V20.7656H178.91V39H176.168L175.477 37.3008H175.324C174.512 38.5898 173.273 39.2344 171.609 39.2344ZM172.863 36.3867C173.777 36.3867 174.445 36.1211 174.867 35.5898C175.297 35.0586 175.531 34.1562 175.57 32.8828V32.4961C175.57 31.0898 175.352 30.082 174.914 29.4727C174.484 28.8633 173.781 28.5586 172.805 28.5586C172.008 28.5586 171.387 28.8984 170.941 29.5781C170.504 30.25 170.285 31.2305 170.285 32.5195C170.285 33.8086 170.508 34.7773 170.953 35.4258C171.398 36.0664 172.035 36.3867 172.863 36.3867ZM194.051 25.8984V27.7148L192 28.2422C192.375 28.8281 192.563 29.4844 192.563 30.2109C192.563 31.6172 192.07 32.7148 191.086 33.5039C190.109 34.2852 188.75 34.6758 187.008 34.6758L186.363 34.6406L185.836 34.582C185.469 34.8633 185.285 35.1758 185.285 35.5195C185.285 36.0352 185.941 36.293 187.254 36.293H189.48C190.918 36.293 192.012 36.6016 192.762 37.2188C193.52 37.8359 193.898 38.7422 193.898 39.9375C193.898 41.4688 193.258 42.6562 191.977 43.5C190.703 44.3438 188.871 44.7656 186.48 44.7656C184.652 44.7656 183.254 44.4453 182.285 43.8047C181.324 43.1719 180.844 42.2812 180.844 41.1328C180.844 40.3438 181.09 39.6836 181.582 39.1523C182.074 38.6211 182.797 38.2422 183.75 38.0156C183.383 37.8594 183.063 37.6055 182.789 37.2539C182.516 36.8945 182.379 36.5156 182.379 36.1172C182.379 35.6172 182.523 35.2031 182.813 34.875C183.102 34.5391 183.52 34.2109 184.066 33.8906C183.379 33.5938 182.832 33.1172 182.426 32.4609C182.027 31.8047 181.828 31.0312 181.828 30.1406C181.828 28.7109 182.293 27.6055 183.223 26.8242C184.152 26.043 185.48 25.6523 187.207 25.6523C187.574 25.6523 188.008 25.6875 188.508 25.7578C189.016 25.8203 189.34 25.8672 189.48 25.8984H194.051ZM183.938 40.8516C183.938 41.3438 184.172 41.7305 184.641 42.0117C185.117 42.293 185.781 42.4336 186.633 42.4336C187.914 42.4336 188.918 42.2578 189.645 41.9062C190.371 41.5547 190.734 41.0742 190.734 40.4648C190.734 39.9727 190.52 39.6328 190.09 39.4453C189.66 39.2578 188.996 39.1641 188.098 39.1641H186.246C185.59 39.1641 185.039 39.3164 184.594 39.6211C184.156 39.9336 183.938 40.3438 183.938 40.8516ZM185.238 30.1875C185.238 30.8984 185.398 31.4609 185.719 31.875C186.047 32.2891 186.543 32.4961 187.207 32.4961C187.879 32.4961 188.371 32.2891 188.684 31.875C188.996 31.4609 189.152 30.8984 189.152 30.1875C189.152 28.6094 188.504 27.8203 187.207 27.8203C185.895 27.8203 185.238 28.6094 185.238 30.1875ZM201.645 28.1953C200.887 28.1953 200.293 28.4375 199.863 28.9219C199.434 29.3984 199.188 30.0781 199.125 30.9609H204.141C204.125 30.0781 203.895 29.3984 203.449 28.9219C203.004 28.4375 202.402 28.1953 201.645 28.1953ZM202.148 39.2344C200.039 39.2344 198.391 38.6523 197.203 37.4883C196.016 36.3242 195.422 34.6758 195.422 32.543C195.422 30.3477 195.969 28.6523 197.063 27.457C198.164 26.2539 199.684 25.6523 201.621 25.6523C203.473 25.6523 204.914 26.1797 205.945 27.2344C206.977 28.2891 207.492 29.7461 207.492 31.6055V33.3398H199.043C199.082 34.3555 199.383 35.1484 199.945 35.7188C200.508 36.2891 201.297 36.5742 202.313 36.5742C203.102 36.5742 203.848 36.4922 204.551 36.3281C205.254 36.1641 205.988 35.9023 206.754 35.543V38.3086C206.129 38.6211 205.461 38.8516 204.75 39C204.039 39.1562 203.172 39.2344 202.148 39.2344ZM219.375 39V30.6914C219.375 29.6445 219.137 28.8633 218.66 28.3477C218.184 27.832 217.438 27.5742 216.422 27.5742C215.07 27.5742 214.082 27.9414 213.457 28.6758C212.84 29.4102 212.531 30.6133 212.531 32.2852V39H210.586V20.7656H212.531V26.2852C212.531 26.9492 212.5 27.5 212.438 27.9375H212.555C212.938 27.3203 213.48 26.8359 214.184 26.4844C214.895 26.125 215.703 25.9453 216.609 25.9453C218.18 25.9453 219.355 26.3203 220.137 27.0703C220.926 27.8125 221.32 28.9961 221.32 30.6211V39H219.375ZM227.156 26.1562V34.4883C227.156 35.5352 227.395 36.3164 227.871 36.832C228.348 37.3477 229.094 37.6055 230.109 37.6055C231.453 37.6055 232.434 37.2383 233.051 36.5039C233.676 35.7695 233.988 34.5703 233.988 32.9062V26.1562H235.934V39H234.328L234.047 37.2773H233.941C233.543 37.9102 232.988 38.3945 232.277 38.7305C231.574 39.0664 230.77 39.2344 229.863 39.2344C228.301 39.2344 227.129 38.8633 226.348 38.1211C225.574 37.3789 225.188 36.1914 225.188 34.5586V26.1562H227.156ZM244.219 37.6289C244.563 37.6289 244.895 37.6055 245.215 37.5586C245.535 37.5039 245.789 37.4492 245.977 37.3945V38.8828C245.766 38.9844 245.453 39.0664 245.039 39.1289C244.633 39.1992 244.266 39.2344 243.938 39.2344C241.453 39.2344 240.211 37.9258 240.211 35.3086V27.668H238.371V26.7305L240.211 25.9219L241.031 23.1797H242.156V26.1562H245.883V27.668H242.156V35.2266C242.156 36 242.34 36.5938 242.707 37.0078C243.074 37.4219 243.578 37.6289 244.219 37.6289Z" fill="#1E1E1E"/>
<path d="M87.1797 67.8384V57.792H90.6953V71H87.3872L87.1797 67.8384ZM87.5703 65.1284L88.6079 65.104C88.6079 65.9829 88.5062 66.8008 88.3028 67.5576C88.0993 68.3063 87.7941 68.9574 87.3872 69.5107C86.9803 70.056 86.4676 70.4832 85.8492 70.7925C85.2307 71.0936 84.5023 71.2441 83.6641 71.2441C83.0212 71.2441 82.4271 71.1546 81.8819 70.9756C81.3448 70.7884 80.8809 70.4995 80.4903 70.1089C80.1078 69.7101 79.8067 69.2015 79.5869 68.583C79.3754 67.9564 79.2696 67.2036 79.2696 66.3247V57.792H82.7852V66.3491C82.7852 66.7397 82.8299 67.0693 82.9195 67.3379C83.0171 67.6064 83.1514 67.8262 83.3223 67.9971C83.4932 68.168 83.6926 68.29 83.9204 68.3633C84.1564 68.4365 84.4169 68.4731 84.7017 68.4731C85.426 68.4731 85.9956 68.3267 86.4107 68.0337C86.8339 67.7407 87.1309 67.342 87.3018 66.8374C87.4808 66.3247 87.5703 65.755 87.5703 65.1284ZM97.8965 60.3311V76.0781H94.3809V57.792H97.6402L97.8965 60.3311ZM106.258 64.2495V64.5059C106.258 65.4661 106.144 66.3573 105.917 67.1792C105.697 68.0011 105.371 68.7173 104.94 69.3276C104.509 69.9299 103.972 70.4019 103.329 70.7437C102.694 71.0773 101.961 71.2441 101.131 71.2441C100.326 71.2441 99.6258 71.0814 99.0318 70.7559C98.4377 70.4303 97.9372 69.9746 97.5303 69.3887C97.1315 68.7946 96.8101 68.1069 96.5659 67.3257C96.3218 66.5444 96.1346 65.7062 96.0044 64.811V64.1396C96.1346 63.1794 96.3218 62.3005 96.5659 61.5029C96.8101 60.6973 97.1315 60.0015 97.5303 59.4155C97.9372 58.8215 98.4336 58.3617 99.0196 58.0361C99.6136 57.7106 100.309 57.5479 101.107 57.5479C101.945 57.5479 102.682 57.7065 103.316 58.0239C103.959 58.3413 104.496 58.797 104.928 59.3911C105.367 59.9852 105.697 60.6932 105.917 61.5151C106.144 62.3371 106.258 63.2485 106.258 64.2495ZM102.73 64.5059V64.2495C102.73 63.688 102.682 63.1712 102.584 62.6992C102.494 62.2191 102.348 61.8 102.145 61.4419C101.949 61.0838 101.689 60.8071 101.363 60.6118C101.046 60.4084 100.659 60.3066 100.204 60.3066C99.7235 60.3066 99.3125 60.384 98.9707 60.5386C98.6371 60.6932 98.3645 60.917 98.1529 61.21C97.9413 61.5029 97.7826 61.8529 97.6768 62.2598C97.571 62.6667 97.5059 63.1265 97.4815 63.6392V65.3359C97.5222 65.9382 97.6361 66.4793 97.8233 66.9595C98.0104 67.4315 98.2993 67.8058 98.69 68.0825C99.0806 68.3592 99.5933 68.4976 100.228 68.4976C100.692 68.4976 101.083 68.3958 101.4 68.1924C101.717 67.9808 101.974 67.6919 102.169 67.3257C102.372 66.9595 102.515 66.5363 102.596 66.0562C102.686 65.576 102.73 65.0592 102.73 64.5059ZM123.75 61.7104V68.7539C123.473 69.0876 123.046 69.4497 122.468 69.8403C121.89 70.2228 121.146 70.5524 120.234 70.8291C119.323 71.1058 118.22 71.2441 116.926 71.2441C115.779 71.2441 114.733 71.057 113.789 70.6826C112.845 70.3001 112.031 69.7427 111.348 69.0103C110.672 68.2778 110.151 67.3826 109.785 66.3247C109.419 65.2586 109.236 64.042 109.236 62.6748V61.564C109.236 60.1968 109.411 58.9801 109.761 57.9141C110.119 56.848 110.627 55.9487 111.287 55.2163C111.946 54.4839 112.731 53.9264 113.643 53.5439C114.554 53.1615 115.567 52.9702 116.682 52.9702C118.228 52.9702 119.498 53.2225 120.491 53.7271C121.484 54.2235 122.24 54.9152 122.761 55.8022C123.29 56.6812 123.616 57.6903 123.738 58.8296H120.186C120.096 58.2274 119.925 57.7025 119.673 57.2549C119.421 56.8073 119.058 56.4574 118.586 56.2051C118.123 55.9528 117.52 55.8267 116.78 55.8267C116.169 55.8267 115.624 55.9528 115.144 56.2051C114.672 56.4492 114.273 56.8114 113.948 57.2915C113.622 57.7716 113.374 58.3657 113.203 59.0737C113.032 59.7817 112.947 60.6037 112.947 61.5396V62.6748C112.947 63.6025 113.036 64.4245 113.215 65.1406C113.394 65.8486 113.659 66.4468 114.009 66.9351C114.367 67.4152 114.806 67.7773 115.327 68.0215C115.848 68.2656 116.454 68.3877 117.146 68.3877C117.724 68.3877 118.204 68.3389 118.586 68.2412C118.977 68.1436 119.29 68.0256 119.526 67.8872C119.771 67.7407 119.958 67.6024 120.088 67.4722V64.3228H116.743V61.7104H123.75ZM141.839 68.0215V62.1377C141.839 61.7145 141.77 61.3524 141.631 61.0513C141.493 60.742 141.277 60.502 140.984 60.3311C140.7 60.1602 140.329 60.0747 139.874 60.0747C139.483 60.0747 139.145 60.1439 138.86 60.2822C138.576 60.4124 138.356 60.6037 138.201 60.856C138.047 61.1001 137.969 61.389 137.969 61.7227H134.454C134.454 61.1611 134.584 60.6281 134.844 60.1235C135.105 59.619 135.483 59.1755 135.98 58.793C136.476 58.4023 137.066 58.0972 137.75 57.8774C138.441 57.6577 139.214 57.5479 140.069 57.5479C141.094 57.5479 142.006 57.7188 142.803 58.0605C143.601 58.4023 144.227 58.915 144.683 59.5986C145.147 60.2822 145.379 61.1367 145.379 62.1621V67.814C145.379 68.5382 145.424 69.1323 145.513 69.5962C145.603 70.0519 145.733 70.4507 145.904 70.7925V71H142.352C142.181 70.6419 142.05 70.1943 141.961 69.6572C141.88 69.112 141.839 68.5667 141.839 68.0215ZM142.303 62.9556L142.327 64.9453H140.362C139.898 64.9453 139.495 64.9982 139.153 65.104C138.812 65.2098 138.531 65.3604 138.311 65.5557C138.091 65.7428 137.929 65.9626 137.823 66.2148C137.725 66.4671 137.676 66.7438 137.676 67.0449C137.676 67.346 137.745 67.6187 137.884 67.8628C138.022 68.0988 138.222 68.286 138.482 68.4243C138.742 68.5545 139.048 68.6196 139.397 68.6196C139.926 68.6196 140.386 68.5138 140.777 68.3022C141.168 68.0907 141.469 67.8302 141.68 67.521C141.9 67.2118 142.014 66.9188 142.022 66.6421L142.95 68.1313C142.82 68.465 142.64 68.8109 142.413 69.1689C142.193 69.527 141.912 69.8647 141.57 70.1821C141.229 70.4914 140.818 70.7477 140.337 70.9512C139.857 71.1465 139.288 71.2441 138.628 71.2441C137.79 71.2441 137.029 71.0773 136.346 70.7437C135.67 70.4019 135.133 69.9339 134.734 69.3398C134.344 68.7376 134.148 68.054 134.148 67.2891C134.148 66.5973 134.279 65.9829 134.539 65.4458C134.8 64.9087 135.182 64.457 135.687 64.0908C136.199 63.7165 136.838 63.4357 137.603 63.2485C138.368 63.0532 139.255 62.9556 140.264 62.9556H142.303ZM156.889 68.1191V52.25H160.429V71H157.243L156.889 68.1191ZM148.54 64.5547V64.2983C148.54 63.2892 148.654 62.3737 148.881 61.5518C149.109 60.7217 149.443 60.0096 149.882 59.4155C150.322 58.8215 150.863 58.3617 151.506 58.0361C152.149 57.7106 152.881 57.5479 153.703 57.5479C154.476 57.5479 155.152 57.7106 155.73 58.0361C156.315 58.3617 156.812 58.8255 157.219 59.4277C157.634 60.0218 157.967 60.7257 158.22 61.5396C158.472 62.3452 158.655 63.2282 158.769 64.1885V64.75C158.655 65.6696 158.472 66.5241 158.22 67.3135C157.967 68.1029 157.634 68.7946 157.219 69.3887C156.812 69.9746 156.315 70.4303 155.73 70.7559C155.144 71.0814 154.46 71.2441 153.679 71.2441C152.857 71.2441 152.124 71.0773 151.481 70.7437C150.847 70.41 150.31 69.9421 149.87 69.3398C149.439 68.7376 149.109 68.0296 148.881 67.2158C148.654 66.402 148.54 65.515 148.54 64.5547ZM152.055 64.2983V64.5547C152.055 65.0999 152.096 65.6086 152.177 66.0806C152.267 66.5526 152.409 66.9717 152.605 67.3379C152.808 67.696 153.068 67.9767 153.386 68.1802C153.711 68.3755 154.106 68.4731 154.57 68.4731C155.172 68.4731 155.668 68.3389 156.059 68.0703C156.45 67.7936 156.747 67.4152 156.95 66.9351C157.162 66.4549 157.284 65.9015 157.316 65.2749V63.6758C157.292 63.1631 157.219 62.7033 157.097 62.2964C156.983 61.8813 156.812 61.5273 156.584 61.2344C156.364 60.9414 156.088 60.7135 155.754 60.5508C155.428 60.388 155.042 60.3066 154.594 60.3066C154.139 60.3066 153.748 60.4124 153.422 60.624C153.097 60.8275 152.832 61.1082 152.629 61.4663C152.434 61.8244 152.287 62.2476 152.189 62.7358C152.1 63.216 152.055 63.7368 152.055 64.2983Z" fill="#E44242"/>
<rect x="126" y="60" width="3" height="11" fill="#E44242"/>
<circle cx="131" cy="62" r="2" fill="#E44242"/>
<defs>
<linearGradient id="paint0_linear_2_42" x1="35.5898" y1="20.0559" x2="17.4375" y2="69.2188" gradientUnits="userSpaceOnUse">
<stop stop-color="#F35B2B"/>
<stop offset="1" stop-color="#E948EC" stop-opacity="0.63"/>
</linearGradient>
<linearGradient id="paint1_linear_2_42" x1="2.29077" y1="21.2847" x2="2.75881" y2="47.4241" gradientUnits="userSpaceOnUse">
<stop stop-color="#9735E3"/>
<stop offset="1" stop-color="#8FE8FC"/>
</linearGradient>
<linearGradient id="paint2_linear_2_42" x1="2.19455" y1="4.35971" x2="2.21505" y2="9.71545" gradientUnits="userSpaceOnUse">
<stop stop-color="#9735E3"/>
<stop offset="1" stop-color="#8FE8FC"/>
</linearGradient>
<linearGradient id="paint3_linear_2_42" x1="56.1183" y1="79.1884" x2="35.9184" y2="48.9313" gradientUnits="userSpaceOnUse">
<stop stop-color="#8FE8FC"/>
<stop offset="1" stop-color="#27F206" stop-opacity="0.69"/>
</linearGradient>
<linearGradient id="paint4_linear_2_42" x1="3.31871" y1="0" x2="3.31871" y2="75.7081" gradientUnits="userSpaceOnUse">
<stop stop-color="#F35B2B"/>
<stop offset="1" stop-color="#E948EC" stop-opacity="0.76"/>
</linearGradient>
</defs>
</svg>
